<svg id="Layer_11" data-name="Layer 11" xmlns="http://www.w3.org/2000/svg" viewBox="0 0 192 192"><defs><style>.cls-1{fill:#f8f9fa;}.cls-2{fill:#212529;}</style></defs><rect class="cls-1" x="20" y="20" width="152" height="152" rx="12"/><path class="cls-2" d="M96,137.14a4.55,4.55,0,0,1-3.21-1.32L58.58,101.9a27.41,27.41,0,0,1,18.76-47,27.62,27.62,0,0,1,18.72,7A27.41,27.41,0,0,1,136.2,98.84a28.86,28.86,0,0,1-2.7,3.09l-.29.26L99.26,135.82A4.56,4.56,0,0,1,96,137.14ZM65,95.36l0,0,31,30.75,31.05-30.75.29-.27a17.3,17.3,0,0,0,1.53-1.78,18.27,18.27,0,0,0-29.22-22A4.55,4.55,0,0,1,96,73.21h0a4.54,4.54,0,0,1-3.65-1.84,19.05,19.05,0,0,0-1.92-2.19,18.41,18.41,0,0,0-13-5.18A18.27,18.27,0,0,0,65,95.36Z"/></svg>